<svg xmlns="http://www.w3.org/2000/svg" viewBox="0 0 640 512">
    <path fill="#C5A572" d="M384 32H512c17.7 0 32 14.3 32 32s-14.3 32-32 32H398.4c-5.2 25.8-22.9 47.1-46.4 57.3V448H512c17.7 0 32 14.3 32 32s-14.3 32-32 32H320 128c-17.7 0-32-14.3-32-32s14.3-32 32-32H288V153.3c-23.5-10.3-41.2-31.6-46.4-57.3H128c-17.7 0-32-14.3-32-32s14.3-32 32-32H256c17.7 0 32 14.3 32 32s-14.3 32-32 32H205.9c7.9 15.4 24.1 26 42.7 26h125.2c18.6 0 34.8-10.6 42.7-26H384c-17.7 0-32-14.3-32-32s14.3-32 32-32z"/>
</svg>


